<?xml version="1.0" encoding="UTF-8" standalone="no"?>
<!-- Created with Inkscape (http://www.inkscape.org/) -->

<svg
   version="1.1"
   id="svg1"
   width="1920.1866"
   height="1440"
   viewBox="0 0 1920.1866 1440"
   xmlns="http://www.w3.org/2000/svg"
   xmlns:svg="http://www.w3.org/2000/svg">
  <defs
     id="defs1">
    <clipPath
       clipPathUnits="userSpaceOnUse"
       id="clipPath16">
      <path
         d="M 0,1080 H 1440.144 V 0 H 0 Z"
         transform="translate(-778.63712,-776.54592)"
         id="path16" />
    </clipPath>
    <clipPath
       clipPathUnits="userSpaceOnUse"
       id="clipPath18">
      <path
         d="M 0,1080 H 1440.144 V 0 H 0 Z"
         transform="translate(-1008.0189,-658.43122)"
         id="path18" />
    </clipPath>
    <clipPath
       clipPathUnits="userSpaceOnUse"
       id="clipPath20">
      <path
         d="M 0,1080 H 1440.144 V 0 H 0 Z"
         transform="translate(-787.26894,-776.74852)"
         id="path20" />
    </clipPath>
    <clipPath
       clipPathUnits="userSpaceOnUse"
       id="clipPath22">
      <path
         d="M 0,1080 H 1440.144 V 0 H 0 Z"
         transform="translate(-757.29819,-837.43412)"
         id="path22" />
    </clipPath>
    <clipPath
       clipPathUnits="userSpaceOnUse"
       id="clipPath24">
      <path
         d="M 0,1080 H 1440.144 V 0 H 0 Z"
         transform="translate(-946.32362,-627.53171)"
         id="path24" />
    </clipPath>
    <clipPath
       clipPathUnits="userSpaceOnUse"
       id="clipPath26">
      <path
         d="M 0,1080 H 1440.144 V 0 H 0 Z"
         transform="translate(-787.26894,-837.23342)"
         id="path26" />
    </clipPath>
    <clipPath
       clipPathUnits="userSpaceOnUse"
       id="clipPath28">
      <path
         d="M 0,1080 H 1440.144 V 0 H 0 Z"
         transform="translate(-932.55805,-617.54591)"
         id="path28" />
    </clipPath>
    <clipPath
       clipPathUnits="userSpaceOnUse"
       id="clipPath30">
      <path
         d="M 0,1080 H 1440.144 V 0 H 0 Z"
         transform="translate(-756.28164,-832.93462)"
         id="path30" />
    </clipPath>
    <clipPath
       clipPathUnits="userSpaceOnUse"
       id="clipPath32">
      <path
         d="M 0,1080 H 1440.144 V 0 H 0 Z"
         transform="translate(-758.82654,-767.47662)"
         id="path32" />
    </clipPath>
    <clipPath
       clipPathUnits="userSpaceOnUse"
       id="clipPath34">
      <path
         d="M 0,1080 H 1440.144 V 0 H 0 Z"
         transform="translate(-839.40865,-721.88132)"
         id="path34" />
    </clipPath>
    <clipPath
       clipPathUnits="userSpaceOnUse"
       id="clipPath36">
      <path
         d="M 0,1080 H 1440.144 V 0 H 0 Z"
         transform="translate(-1057.7455,-855.89362)"
         id="path36" />
    </clipPath>
    <clipPath
       clipPathUnits="userSpaceOnUse"
       id="clipPath38">
      <path
         d="M 0,1080 H 1440.144 V 0 H 0 Z"
         transform="translate(-1097.7339,-896.25102)"
         id="path38" />
    </clipPath>
    <clipPath
       clipPathUnits="userSpaceOnUse"
       id="clipPath40">
      <path
         d="M 0,1080 H 1440.144 V 0 H 0 Z"
         transform="translate(-988.56685,-730.81742)"
         id="path40" />
    </clipPath>
    <clipPath
       clipPathUnits="userSpaceOnUse"
       id="clipPath42">
      <path
         d="M 0,1080 H 1440.144 V 0 H 0 Z"
         transform="translate(-935.02382,-851.48052)"
         id="path42" />
    </clipPath>
    <clipPath
       clipPathUnits="userSpaceOnUse"
       id="clipPath44">
      <path
         d="M 0,1080 H 1440.144 V 0 H 0 Z"
         transform="translate(-966.31382,-708.68952)"
         id="path44" />
    </clipPath>
    <clipPath
       clipPathUnits="userSpaceOnUse"
       id="clipPath46">
      <path
         d="M 0,1080 H 1440.144 V 0 H 0 Z"
         transform="translate(-1030.1976,-685.74952)"
         id="path46" />
    </clipPath>
    <clipPath
       clipPathUnits="userSpaceOnUse"
       id="clipPath48">
      <path
         d="M 0,1080 H 1440.144 V 0 H 0 Z"
         transform="translate(-1075.0795,-698.50292)"
         id="path48" />
    </clipPath>
    <clipPath
       clipPathUnits="userSpaceOnUse"
       id="clipPath50">
      <path
         d="M 0,1080 H 1440.144 V 0 H 0 Z"
         transform="translate(-1087.0629,-610.51661)"
         id="path50" />
    </clipPath>
    <clipPath
       clipPathUnits="userSpaceOnUse"
       id="clipPath52">
      <path
         d="M 0,1080 H 1440.144 V 0 H 0 Z"
         transform="translate(-895.64005,-685.65622)"
         id="path52" />
    </clipPath>
    <clipPath
       clipPathUnits="userSpaceOnUse"
       id="clipPath54">
      <path
         d="M 0,1080 H 1440.144 V 0 H 0 Z"
         transform="translate(-857.82175,-571.16701)"
         id="path54" />
    </clipPath>
    <clipPath
       clipPathUnits="userSpaceOnUse"
       id="clipPath56">
      <path
         d="M 0,1080 H 1440.144 V 0 H 0 Z"
         transform="translate(-947.24552,-535.44731)"
         id="path56" />
    </clipPath>
    <clipPath
       clipPathUnits="userSpaceOnUse"
       id="clipPath58">
      <path
         d="M 0,1080 H 1440.144 V 0 H 0 Z"
         transform="translate(-980.4154,-735.79052)"
         id="path58" />
    </clipPath>
    <clipPath
       clipPathUnits="userSpaceOnUse"
       id="clipPath60">
      <path
         d="M 0,1080 H 1440.144 V 0 H 0 Z"
         transform="translate(-1121.1322,-703.68802)"
         id="path60" />
    </clipPath>
    <clipPath
       clipPathUnits="userSpaceOnUse"
       id="clipPath62">
      <path
         d="M 0,1080 H 1440.144 V 0 H 0 Z"
         transform="translate(-977.98772,-734.67922)"
         id="path62" />
    </clipPath>
    <clipPath
       clipPathUnits="userSpaceOnUse"
       id="clipPath64">
      <path
         d="M 0,1080 H 1440.144 V 0 H 0 Z"
         transform="translate(-971.87342,-705.40532)"
         id="path64" />
    </clipPath>
    <clipPath
       clipPathUnits="userSpaceOnUse"
       id="clipPath66">
      <path
         d="M 0,1080 H 1440.144 V 0 H 0 Z"
         transform="translate(-1039.8813,-726.56982)"
         id="path66" />
    </clipPath>
    <clipPath
       clipPathUnits="userSpaceOnUse"
       id="clipPath68">
      <path
         d="M 0,1080 H 1440.144 V 0 H 0 Z"
         transform="translate(-1084.2261,-692.62211)"
         id="path68" />
    </clipPath>
    <clipPath
       clipPathUnits="userSpaceOnUse"
       id="clipPath70">
      <path
         d="M 0,1080 H 1440.144 V 0 H 0 Z"
         transform="translate(-1114.0648,-703.86572)"
         id="path70" />
    </clipPath>
    <clipPath
       clipPathUnits="userSpaceOnUse"
       id="clipPath72">
      <path
         d="M 0,1080 H 1440.144 V 0 H 0 Z"
         transform="translate(-902.41442,-648.63382)"
         id="path72" />
    </clipPath>
    <clipPath
       clipPathUnits="userSpaceOnUse"
       id="clipPath74">
      <path
         d="M 0,1080 H 1440.144 V 0 H 0 Z"
         transform="translate(-1012.8999,-729.94192)"
         id="path74" />
    </clipPath>
    <clipPath
       clipPathUnits="userSpaceOnUse"
       id="clipPath76">
      <path
         d="M 0,1080 H 1440.144 V 0 H 0 Z"
         transform="translate(-1099.5961,-770.42872)"
         id="path76" />
    </clipPath>
    <clipPath
       clipPathUnits="userSpaceOnUse"
       id="clipPath78">
      <path
         d="M 0,1080 H 1440.144 V 0 H 0 Z"
         transform="translate(-976.51892,-677.69872)"
         id="path78" />
    </clipPath>
    <clipPath
       clipPathUnits="userSpaceOnUse"
       id="clipPath80">
      <path
         d="M 0,1080 H 1440.144 V 0 H 0 Z"
         transform="translate(-800.43985,-753.44532)"
         id="path80" />
    </clipPath>
    <clipPath
       clipPathUnits="userSpaceOnUse"
       id="clipPath82">
      <path
         d="M 0,1080 H 1440.144 V 0 H 0 Z"
         transform="translate(-688.32562,-775.81592)"
         id="path82" />
    </clipPath>
    <clipPath
       clipPathUnits="userSpaceOnUse"
       id="clipPath84">
      <path
         d="M 0,1080 H 1440.144 V 0 H 0 Z"
         transform="translate(-1167.6732,-673.76612)"
         id="path84" />
    </clipPath>
    <clipPath
       clipPathUnits="userSpaceOnUse"
       id="clipPath86">
      <path
         d="M 0,1080 H 1440.144 V 0 H 0 Z"
         transform="translate(-894.3451,-667.87601)"
         id="path86" />
    </clipPath>
    <clipPath
       clipPathUnits="userSpaceOnUse"
       id="clipPath88">
      <path
         d="M 0,1080 H 1440.144 V 0 H 0 Z"
         transform="translate(-890.93402,-549.77692)"
         id="path88" />
    </clipPath>
    <clipPath
       clipPathUnits="userSpaceOnUse"
       id="clipPath90">
      <path
         d="M 0,1080 H 1440.144 V 0 H 0 Z"
         transform="translate(-1031.4936,-518.34082)"
         id="path90" />
    </clipPath>
    <clipPath
       clipPathUnits="userSpaceOnUse"
       id="clipPath92">
      <path
         d="M 0,1080 H 1440.144 V 0 H 0 Z"
         transform="translate(-867.58045,-850.46442)"
         id="path92" />
    </clipPath>
    <clipPath
       clipPathUnits="userSpaceOnUse"
       id="clipPath94">
      <path
         d="M 0,1080 H 1440.144 V 0 H 0 Z"
         transform="translate(-885.49742,-731.81932)"
         id="path94" />
    </clipPath>
    <clipPath
       clipPathUnits="userSpaceOnUse"
       id="clipPath96">
      <path
         d="M 0,1080 H 1440.144 V 0 H 0 Z"
         transform="translate(-954.44575,-835.83692)"
         id="path96" />
    </clipPath>
    <clipPath
       clipPathUnits="userSpaceOnUse"
       id="clipPath98">
      <path
         d="M 0,1080 H 1440.144 V 0 H 0 Z"
         transform="translate(-875.1283,-848.79492)"
         id="path98" />
    </clipPath>
  </defs>
  <g
     id="layer-MC5"
     style="display:inline">
    <path
       id="path15"
       d="m 0,0 c 3.821,-32.506 42.39,-54.687 86.145,-49.543 43.754,5.143 76.127,35.664 72.306,68.17 C 154.63,51.133 62.37,86.848 18.615,81.704 -25.14,76.561 -3.821,32.506 0,0"
       style="fill:#1f7ba3;fill-opacity:1;fill-rule:nonzero;stroke:none"
       transform="matrix(1.3333333,0,0,-1.3333333,1038.1828,404.60547)"
       clip-path="url(#clipPath16)" />
    <path
       id="path17"
       d="m 0,0 c 0.404,-0.379 0.807,-0.756 1.211,-1.134 0.082,-0.08 0.154,-0.161 0.23,-0.241 1.24,0.867 2.434,1.799 3.411,2.976 2.808,3.379 4.226,8.738 5.512,12.86 3.951,12.654 3.388,24.215 0.115,36.94 -0.456,1.777 -3.128,0.925 -2.706,-0.84 C 10.772,38.05 10.61,27.576 7.013,15.27 5.759,10.993 3.53,3.908 -0.783,1.766 -1.131,1.592 -1.441,1.333 -1.742,1.045 -1.139,0.848 -0.548,0.517 0,0"
       style="fill:#231f20;fill-opacity:1;fill-rule:nonzero;stroke:none"
       transform="matrix(1.3333333,0,0,-1.3333333,1344.0252,562.09173)"
       clip-path="url(#clipPath18)" />
    <path
       id="path19"
       d="M 0,0 C -1.581,6.884 -4.953,10.117 -5.388,21.983 -6.381,49.113 8.65,82.251 -29.514,69.054 -26.973,69.933 -47.244,51.946 -59.109,41.774 -45.998,19.535 -23.717,6.427 0,0"
       style="fill:#2392d0;fill-opacity:1;fill-rule:nonzero;stroke:none"
       transform="matrix(1.3333333,0,0,-1.3333333,1049.6919,404.33533)"
       clip-path="url(#clipPath20)" />
    <path
       id="path21"
       d="m 0,0 c 5.712,7.578 -6.242,1.963 -8.793,-1.454 -4.815,-6.383 -8.826,-14.118 -11.257,-22.141 2.919,-2.459 5.895,-4.795 8.946,-6.991 C -10.441,-19.705 -6.569,-8.726 0,0"
       style="fill:#000000;fill-opacity:1;fill-rule:nonzero;stroke:none"
       transform="matrix(1.3333333,0,0,-1.3333333,1009.7309,323.4212)"
       clip-path="url(#clipPath22)" />
    <path
       id="path23"
       d="m 0,0 c 8.706,1.615 17.66,4.302 25.064,9.268 7.451,5.002 16.497,11.257 22.002,18.389 3.638,4.71 8.327,9.42 5.077,15.586 -0.736,1.397 -3.191,0.285 -2.525,-1.161 C 52.08,36.706 45.235,30.048 41.356,26.818 34.918,21.457 28.227,16.184 21.221,11.591 15.22,7.656 8.595,7.19 2.033,4.987 -1.439,3.825 -6.721,2.631 -10.193,4.353 -12.773,5.628 -15.08,7.303 -17.86,8.116 -19.648,8.643 -21.256,5.965 -19.651,4.795 -13.255,0.119 -7.815,-1.456 0,0"
       style="fill:#231f20;fill-opacity:1;fill-rule:nonzero;stroke:none"
       transform="matrix(1.3333333,0,0,-1.3333333,1261.7648,603.29107)"
       clip-path="url(#clipPath24)" />
    <path
       id="path25"
       d="m 0,0 -9.095,24.792 c 0,0 -16.458,-31.888 -13.871,-65.795 6.807,-3.091 14.111,-5.439 22.142,-6.798 C -4.242,-34.472 -4.42,-18.627 0,0"
       style="fill:#000000;fill-opacity:1;fill-rule:nonzero;stroke:none"
       transform="matrix(1.3333333,0,0,-1.3333333,1049.6919,323.6888)"
       clip-path="url(#clipPath26)" />
    <path
       id="path27"
       d="m 0,0 c 0.276,-1.153 0.89,-2.166 1.524,-3.156 0.866,-1.352 -1.241,-2.416 -2.139,-1.18 -0.7,0.963 -1.417,1.918 -2.091,2.9 0.862,0.333 1.725,0.667 2.587,1.001 0.369,-1.002 0.743,-2.002 1.104,-3.006 0.505,-1.403 -1.514,-2.283 -2.437,-1.33 -1.227,1.267 -2.052,2.738 -2.528,4.434 -0.317,1.128 1.15,2.329 2.151,1.56 C -0.421,0.139 0.852,-1.041 2.039,-2.362 1.27,-2.928 0.5,-3.494 -0.27,-4.059 c -1.369,1.911 -2.696,3.861 -3.992,5.822 -1.177,1.782 1.931,3.544 2.926,1.613 1.082,-2.096 2.275,-4.086 3.597,-6.04 0.915,-1.353 -1.252,-2.937 -2.309,-1.697 -0.985,1.157 -2.082,2.206 -3.286,3.132 l 2.15,1.561 c 0.341,-1.213 0.935,-2.21 1.81,-3.113 -0.813,-0.443 -1.625,-0.886 -2.438,-1.329 -0.349,1.006 -0.687,2.015 -1.029,3.024 -0.526,1.554 1.8,2.287 2.586,1.001 C 0.362,-1.093 0.936,-2.13 1.524,-3.156 0.811,-3.549 0.098,-3.942 -0.615,-4.336 -1.29,-2.979 -1.461,-1.649 -1.489,-0.15 -1.507,0.712 -0.196,0.818 0,0"
       style="fill:#231f20;fill-opacity:1;fill-rule:nonzero;stroke:none"
       transform="matrix(1.3333333,0,0,-1.3333333,1243.4107,616.60547)"
       clip-path="url(#clipPath28)" />
    <path
       id="path29"
       d="m 0,0 c 0,0 4.789,21.935 28.595,13.064 l 4.625,23.322 c 0,0 -34.41,14.928 -39.42,-18.469 -1.161,-7.714 -12.224,-14.182 -27.306,-23.684 3.301,-3.255 6.613,-6.413 9.978,-9.428 C -15.289,-8.417 -7.276,-3.185 0,0"
       style="fill:#000000;fill-opacity:1;fill-rule:nonzero;stroke:none"
       transform="matrix(1.3333333,0,0,-1.3333333,1008.3755,329.42053)"
       clip-path="url(#clipPath30)" />
    <path
       id="path31"
       d="m 0,0 c 0,0 -10.789,9.753 -14.129,25.703 l -23.107,25.241 c 0,0 -128.936,-110.062 -77.252,-200.777 0,0 49.062,-66.323 174.961,-20.773 0,0 15.69,-77.287 122.172,-80.714 33.272,-1.059 83.271,-2.986 137.089,-2.037 10.764,0.189 21.667,0.481 32.549,0.865 67.414,5.681 145.445,5.681 189.548,70.14 13.57,20.356 10.177,50.889 -6.786,64.459 -57.674,44.104 -125.525,37.319 -189.984,52.534 0,0 -16.629,2.373 -33.161,7.062 -16.53,4.69 -32.963,11.694 -32.57,20.957 0,0 46.51,4.979 59.216,15.55 0,0 36.053,25.085 22.567,39.331 0,0 -20.014,14.448 -54.389,-17.815 l 7.491,16.49 c 0,0 57.191,94.654 3.911,118.474 0,0 -54.799,20.906 -59.775,-53.425 0,0 13.262,-72.384 -24.463,-90.244 0,0 -12.008,94.645 -43.255,76.537 L 172.557,29.678 145.746,-1.016 130.277,-43.295 76.703,-32.68 39.879,-19.921 12.816,-11.326 Z"
       style="fill:#9fdcf8;fill-opacity:1;fill-rule:nonzero;stroke:none"
       transform="matrix(1.3333333,0,0,-1.3333333,1011.7687,416.69787)"
       clip-path="url(#clipPath32)" />
    <path
       id="path33"
       d="m 0,0 c -12.039,24.244 -41.759,25.19 -52.14,54.867 -0.645,1.844 -9.163,2.596 -4.723,6.805 -23.719,6.419 -43.04,16.748 -56.158,38.983 -4.174,-3.58 -4.135,-3.524 -4.833,-4.12 -0.354,-0.304 -128.831,-110.225 -77.19,-200.801 0,0 25.864,-34.872 88.11,-36.614 -6.704,27.891 -6.821,57.962 -1.511,88.661 C -99.629,-1.23 -34.757,-18.849 0,0"
       style="fill:#2392d0;fill-opacity:1;fill-rule:nonzero;stroke:none"
       transform="matrix(1.3333333,0,0,-1.3333333,1119.2115,477.4916)"
       clip-path="url(#clipPath34)" />
    <path
       id="path35"
       d="M 0,0 C -0.047,2.727 -0.151,5.453 -0.371,8.18 0.014,5.41 0.132,2.684 0,0 m 37.221,-73.289 c -1.441,-0.543 -2.881,-1.059 -4.323,-1.56 -0.725,1.246 -2.416,-1.291 -3.141,-0.045 -3.524,-2.868 -6.166,-1.609 -9.871,-3.831 -3.98,-0.967 -7.988,-1.719 -12.038,-2.223 14.395,23.075 26.945,48.695 29.677,74.512 2.451,23.151 -7.173,53.025 -34.004,55.901 -25.023,2.681 -37.39,-19.685 -40.388,-41.371 -5.744,-41.534 7.513,-95.262 -35.01,-120.233 -21.045,-12.358 -15.296,-28.282 6.311,-21.922 l 8.871,0.535 c 10.533,5.351 19.336,10.748 26.597,16.853 0.694,-0.135 1.385,-0.263 2.074,-0.38 3.596,-7.408 11.314,-13.075 21.555,-11.256 24.543,4.359 51.254,12.34 62.979,34.15 13.423,24.97 -1.926,27.415 -19.289,20.87"
       style="fill:#ffffff;fill-opacity:1;fill-rule:nonzero;stroke:none"
       transform="matrix(1.3333333,0,0,-1.3333333,1410.3273,298.80853)"
       clip-path="url(#clipPath36)" />
    <path
       id="path37"
       d="m 0,0 c -34.73,57.692 -89.652,-4.685 -84.957,-63.842 4.287,-53.966 -40.118,-103.402 -40.118,-103.402 42.011,28.477 61.442,78.516 52.192,115.887 C -91.075,22.098 27.369,23.34 -12.105,-75.145 -51.553,-173.672 -116.976,-176.356 -116.976,-176.356 -50.199,-186.36 34.734,-57.694 0,0"
       style="fill:#000000;fill-opacity:1;fill-rule:nonzero;stroke:none"
       transform="matrix(1.3333333,0,0,-1.3333333,1463.6451,244.99867)"
       clip-path="url(#clipPath38)" />
    <path
       id="path39"
       d="m 0,0 c 0,0 72.174,64.991 60.681,125.21 -11.496,60.232 70.715,-23.599 -20.203,-102.363 0,0 42.839,55.945 35.824,82.143 C 71.37,123.43 66.443,39.956 0,0"
       style="fill:#000000;fill-opacity:1;fill-rule:nonzero;stroke:none"
       transform="matrix(1.3333333,0,0,-1.3333333,1318.0891,465.5768)"
       clip-path="url(#clipPath40)" />
    <path
       id="path41"
       d="m 0,0 c 0,0 63.677,4.345 64.335,-92.189 l -21.371,-24.612 c 0,0 17.099,121.412 -45.026,100.28 z"
       style="fill:#000000;fill-opacity:1;fill-rule:nonzero;stroke:none"
       transform="matrix(1.3333333,0,0,-1.3333333,1246.6984,304.69267)"
       clip-path="url(#clipPath42)" />
    <path
       id="path43"
       d="m 0,0 c -4.673,2.733 -7.125,-1.42 -9.693,-6.5 -5.463,-10.802 -8.815,-21.337 -17.941,-29.79 -7.911,-7.326 -16.841,-14.764 -27.428,-16.399 -5.609,-0.867 -12.377,-7.986 -11,-13 1.646,-5.989 10.037,-4.931 15.663,-4.062 13.623,2.105 28.55,6.377 38.837,15.472 5.008,4.426 9.721,10.186 13.276,15.84 3.886,6.179 7.78,15.165 5.315,22 C 5.619,-12.53 5.101,-2.984 0,0"
       style="fill:#ffffff;fill-opacity:1;fill-rule:nonzero;stroke:none"
       transform="matrix(1.3333333,0,0,-1.3333333,1288.4184,495.08067)"
       clip-path="url(#clipPath44)" />
    <path
       id="path45"
       d="M 0,0 C 1.815,8.638 2.549,17.5 2.07,26.337 1.957,28.442 1.368,30.22 0.457,31.671 l 0.366,2.907 c 0.71,5.635 -5.335,10.5 -10.5,10.5 -6.264,0 -9.788,-4.848 -10.5,-10.5 -1.34,-10.624 -2.678,-21.248 -4.018,-31.873 -0.304,-2.409 0.409,-4.488 1.716,-6.143 -0.684,-2.232 -1.462,-4.438 -2.343,-6.61 -4.503,0.138 -8.973,-2.175 -10.058,-7.474 -1.317,-6.432 -4.72,-11.285 -9.424,-15.774 -5.168,-4.933 -13.403,-8.325 -16.821,-14.696 -5.241,-9.77 3.519,-21.959 14.622,-18.673 0.009,0.003 0.019,0.007 0.028,0.01 1.481,-0.9 3.19,-1.498 5.041,-1.663 16.512,-1.474 25.726,19.927 32.193,31.801 3.895,7.153 8.073,14.62 10.824,22.303 C 3.278,-9.477 2.598,-4.001 0,0"
       style="fill:#ffffff;fill-opacity:1;fill-rule:nonzero;stroke:none"
       transform="matrix(1.3333333,0,0,-1.3333333,1373.5968,525.66733)"
       clip-path="url(#clipPath46)" />
    <path
       id="path47"
       d="m 0,0 c -0.312,1.733 -1.017,3.143 -1.979,4.259 -2.701,10.748 -20.783,9.887 -20.654,-2.684 0.107,-10.442 0.214,-20.883 0.321,-31.325 0.009,-0.921 0.146,-1.784 0.372,-2.596 -1.492,-5.824 -3.507,-11.526 -5.656,-16.967 -2.593,-6.565 -5.803,-12.914 -9.332,-19.024 -3.661,-6.341 -13.798,-17.356 -12.899,-25.166 1.205,-10.47 16.414,-10.258 22.736,-1.424 6.116,8.546 11.908,17.316 17.302,26.337 4.713,7.882 11.315,17.321 6.446,25.149 C 0.919,-29.313 2.649,-14.724 0,0"
       style="fill:#ffffff;fill-opacity:1;fill-rule:nonzero;stroke:none"
       transform="matrix(1.3333333,0,0,-1.3333333,1433.4393,508.6628)"
       clip-path="url(#clipPath48)" />
    <path
       id="path49"
       d="m 0,0 c -0.521,-0.646 -0.505,-0.316 0,0 m 24.994,40.147 c 2.969,15.109 0.909,29.988 -3.63,44.815 C 17.982,96.007 0.603,91.297 4.007,80.177 8.726,64.764 10.037,50.758 5.099,35.243 0.421,20.55 -6.017,6.858 -7.561,-8.672 c -0.504,-5.079 4.546,-8.685 9,-9 10.467,-0.738 15.72,10.517 19.571,18.408 4.47,9.162 7.931,18.77 10.259,28.693 1.279,5.45 -2.123,9.382 -6.275,10.718"
       style="fill:#ffffff;fill-opacity:1;fill-rule:nonzero;stroke:none"
       transform="matrix(1.3333333,0,0,-1.3333333,1449.4172,625.97787)"
       clip-path="url(#clipPath50)" />
    <path
       id="path51"
       d="M 0,0 C -3.415,3.009 -7.046,6.06 -11.752,6.573 -17.424,7.19 -22.669,4.46 -27.937,2.837 c -2.869,-0.884 -6.73,-1.446 -7.172,-5.097 -0.474,-3.904 3.178,-6.075 6.279,-7.288 10.187,-3.986 24.293,-6.093 34.949,-2.583 2.851,0.939 5.13,2.836 4.755,6.091 -0.472,4.099 -4.659,5.756 -8.06,6.808 C 0.965,1.339 0.175,-1.556 2.017,-2.125 5.04,-3.06 5.852,-2.739 5.552,-6.414 5.268,-9.909 5.271,-9.36 2.229,-9.858 c -3.038,-0.497 -6.136,-0.703 -9.211,-0.698 -6.012,0.009 -12.004,0.93 -17.738,2.744 -0.96,0.303 -2.498,0.562 -3.312,1.156 -6.993,5.098 -2.219,5.692 0.101,6.372 2.405,0.706 4.729,1.637 7.106,2.421 3.269,1.079 6.807,2.071 10.257,1.187 3.309,-0.847 5.953,-3.248 8.447,-5.446 C -0.678,-3.394 1.452,-1.279 0,0"
       style="fill:#9fdcf8;fill-opacity:1;fill-rule:nonzero;stroke:none"
       transform="matrix(1.3333333,0,0,-1.3333333,1194.1867,525.79173)"
       clip-path="url(#clipPath52)" />
    <path
       id="path53"
       d="m 0,0 c 9.765,-3.5 18.037,-9.542 24.46,-17.672 1.196,-1.514 3.307,0.622 2.122,2.122 C 19.827,-7 11.045,-0.781 0.798,2.893 -1.023,3.546 -1.807,0.648 0,0"
       style="fill:#9fdcf8;fill-opacity:1;fill-rule:nonzero;stroke:none"
       transform="matrix(1.3333333,0,0,-1.3333333,1143.7623,678.444)"
       clip-path="url(#clipPath54)" />
    <path
       id="path55"
       d="m 0,0 c 11.119,4.013 21.712,10.827 33.998,9.258 12.419,-1.587 22.625,-9.477 32,-17.184 0.606,0.785 1.212,1.571 1.817,2.356 -15.885,7.568 -33.864,7.935 -50.065,1.097 -1.773,-0.748 -0.246,-3.333 1.514,-2.59 15.122,6.382 32.23,5.957 47.038,-1.098 1.421,-0.677 3.227,1.197 1.817,2.356 C 58.498,2.104 48.109,10.145 35.446,12.089 22.204,14.122 11.184,7.218 -0.798,2.893 -2.6,2.242 -1.822,-0.657 0,0"
       style="fill:#9fdcf8;fill-opacity:1;fill-rule:nonzero;stroke:none"
       transform="matrix(1.3333333,0,0,-1.3333333,1262.994,726.07027)"
       clip-path="url(#clipPath56)" />
    <path
       id="path57"
       d="m 0,0 c 0,0 -10.767,-9.574 2.606,-16.57 0,0 -19.323,-0.358 -13.352,14.567 C -4.752,12.963 0,0 0,0"
       style="fill:#000000;fill-opacity:1;fill-rule:nonzero;stroke:none"
       transform="matrix(1.3333333,0,0,-1.3333333,1307.2205,458.946)"
       clip-path="url(#clipPath58)" />
    <path
       id="path59"
       d="m 0,0 c -11.471,2.092 -22.416,4.227 -32.376,6.611 -29.88,7.151 -50.899,16.557 -54.33,31.73 l -14.47,-11.534 c 0,0 -2.089,-13.509 61.538,-29.68 7.059,-1.779 14.929,-3.592 23.666,-5.435 63.611,-18.655 185.743,1.701 192.529,-86.506 0,-6.786 -3.393,-13.571 -10.178,-20.356 -64.459,-44.104 -139.096,-54.282 -209.068,-60.039 -12.06,-0.706 -24.142,-1.131 -36.139,-1.23 -95.985,-0.784 -186.647,19.428 -218.239,85.838 0,0 -92.635,-28.492 -150.784,21.003 -49.987,42.544 8.989,142.122 59.472,183.65 -3.364,3.014 -6.677,6.172 -9.977,9.428 -35.995,-22.676 -94.894,-62.643 -96.807,-178.163 -2.056,-124.428 179.9,-79.31 185.6,-65.841 0,0 -7.518,-63.27 131.777,-85.291 47.947,-7.582 96.623,-9.963 143.003,-8.15 11.595,0.453 23.046,1.168 34.199,2.154 75.363,8.434 177.141,25.396 194.104,103.426 C 213.875,-6.607 71.387,-16.785 0,0"
       style="fill:#000000;fill-opacity:1;fill-rule:nonzero;stroke:none"
       transform="matrix(1.3333333,0,0,-1.3333333,1494.8429,501.74933)"
       clip-path="url(#clipPath60)" />
    <path
       id="path61"
       d="m 0,0 c 0,0 -10.211,9.015 -15.004,-9.161 -4.786,-18.19 23.213,-20.266 23.56,-7.6 l 5.635,2.284 c 0,0 -3.593,-21.423 -22.901,-14.239 -19.274,7.216 -12.85,41.591 15.504,36.195 z"
       style="fill:#000000;fill-opacity:1;fill-rule:nonzero;stroke:none"
       transform="matrix(1.3333333,0,0,-1.3333333,1303.9836,460.42773)"
       clip-path="url(#clipPath62)" />
    <path
       id="path63"
       d="m 0,0 c 0,0 -1.531,-9.421 8.479,-8.352 9.999,1.073 15.466,12.557 11.827,23.149 l 4.984,0.531 c 0,0 3.879,-20.621 -12.393,-25.736 C -3.401,-15.522 -5.861,-8.198 -2.596,0.558 0.682,9.337 0,0 0,0"
       style="fill:#000000;fill-opacity:1;fill-rule:nonzero;stroke:none"
       transform="matrix(1.3333333,0,0,-1.3333333,1295.8312,499.4596)"
       clip-path="url(#clipPath64)" />
    <path
       id="path65"
       d="m 0,0 c -0.294,3.615 -11.759,-4.202 -11.412,-8.583 2.035,-25.911 -3.203,-55.382 -15.484,-78.478 -6.99,-13.127 -29.501,-32.96 -41.136,-13.367 -1.542,2.61 -2.703,5.25 -3.359,8.098 27.444,22.078 55.416,57.461 46.459,94.608 -0.954,4.044 -12.384,-4.501 -11.403,-8.592 5.308,-22.099 -5.049,-48.171 -19.76,-64.273 -11.959,-13.09 -43.569,-29.101 -15.591,-46.081 20.599,-12.503 42.857,12.718 51.899,27.76 C -4.35,-63.262 2.32,-29.642 0,0"
       style="fill:#000000;fill-opacity:1;fill-rule:nonzero;stroke:none"
       transform="matrix(1.3333333,0,0,-1.3333333,1386.5083,471.24027)"
       clip-path="url(#clipPath66)" />
    <path
       id="path67"
       d="m 0,0 c -1.759,7.133 -4.954,14.2 -9.918,21.13 -2.145,3.02 -13.314,-6.452 -10.745,-10.059 20.158,-28.165 9.188,-57.459 -6.726,-84.542 -4.619,-7.871 -9.964,-13.383 -19.449,-15.118 -17.428,-3.164 -3.754,11.169 1.567,18.484 18.876,26.096 27.919,60.687 20.666,92.589 -0.926,4.012 -12.347,-4.463 -11.405,-8.587 5.948,-26.161 1.281,-58.741 -14.544,-80.601 -7.233,-9.991 -31.569,-39.962 -0.811,-31.958 9.675,2.517 16.727,7.052 22.511,13.009 5.785,5.956 10.3,13.335 14.905,21.54 9.862,10.898 9.862,27.861 15.251,42.583 C 2.082,-14.333 1.76,-7.133 0,0"
       style="fill:#000000;fill-opacity:1;fill-rule:nonzero;stroke:none"
       transform="matrix(1.3333333,0,0,-1.3333333,1445.6347,516.50387)"
       clip-path="url(#clipPath68)" />
    <path
       id="path69"
       d="M 0,0 C 0,0 -13.57,0 -10.178,-6.785 0,-37.319 6.785,-78.029 -16.963,-105.17 h -13.57 c -6.785,16.962 10.178,27.141 16.963,40.711 6.785,20.355 6.785,44.103 -0.288,65.234 -1.278,4.18 -17.388,2.095 -16.164,-1.819 3.534,-11.375 6.517,-26.459 6.852,-41.234 6.207,-25.574 -17.541,-42.537 -20.934,-66.285 0,-6.785 10.178,-10.178 16.963,-10.178 C 16.963,-101.778 20.355,-37.319 0,0"
       style="fill:#000000;fill-opacity:1;fill-rule:nonzero;stroke:none"
       transform="matrix(1.3333333,0,0,-1.3333333,1485.4197,501.5124)"
       clip-path="url(#clipPath70)" />
    <path
       id="path71"
       d="M 0,0 C -0.157,0.317 0.051,0.299 0,0 M 67.854,43.024 C 65.837,19.383 52.42,2.469 28.828,-2.335 22.022,-3.735 14.769,-4.701 7.854,-3.437 5.807,-3.064 3.146,-2.719 1.396,-1.412 0.981,-1.093 0.682,-0.825 0.465,-0.602 10.899,4.84 22.059,8.08 31.523,15.661 c 8.533,6.832 15.873,14.513 21.654,23.825 5.919,9.559 10.281,21.495 10.227,32.88 C 63.373,75.695 51.94,68.268 51.97,63.832 52.114,36.844 30.251,19.917 7.676,10.457 1.954,8.055 -21.989,-6.588 -7.081,-12.665 c 14.897,-6.065 35.507,-0.317 48.913,6.931 21.201,11.45 35.239,31.1 37.285,55.277 0.487,5.646 -10.948,-2.721 -11.263,-6.519"
       style="fill:#000000;fill-opacity:1;fill-rule:nonzero;stroke:none"
       transform="matrix(1.3333333,0,0,-1.3333333,1203.2192,575.15493)"
       clip-path="url(#clipPath72)" />
    <path
       id="path73"
       d="m 0,0 c 30.116,3.449 87.137,7.687 101.65,37.778 15.691,32.572 -46.441,0.359 -56.366,-5.531 -8.192,-4.877 -1.712,6.462 2.039,8.686 11.148,6.645 82.199,43.836 66.151,4.537 C 95.363,1.207 34.595,-5.982 -7.289,-10.794 -12.673,-11.421 -3.824,-0.426 0,0"
       style="fill:#000000;fill-opacity:1;fill-rule:nonzero;stroke:none"
       transform="matrix(1.3333333,0,0,-1.3333333,1350.5331,466.74413)"
       clip-path="url(#clipPath74)" />
    <path
       id="path75"
       d="m 0,0 c -5.666,0.386 -11.546,-0.993 -17.083,-2.086 -10.404,-2.1 -20.753,-4.617 -31.019,-7.364 -3.291,-0.881 -6.165,-3.337 -8.069,-6.131 -0.792,-1.183 -2.559,-5.58 0.769,-4.681 4.017,1.088 8.058,2.104 12.091,3.099 6.965,1.703 13.972,3.341 21.027,4.679 1.986,0.377 3.99,0.715 5.999,1.015 -15.286,-7.457 -32.59,-14.385 -48.74,-20.9 -3.114,-1.266 -6.156,-4.082 -7.587,-7.136 -1.215,-2.527 0.143,-4.007 2.766,-2.949 14.951,6.039 29.882,12.121 44.513,18.908 7.05,3.268 14.407,6.506 20.756,11.074 C -2.128,-10.69 8.142,-0.564 0,0"
       style="fill:#000000;fill-opacity:1;fill-rule:nonzero;stroke:none"
       transform="matrix(1.3333333,0,0,-1.3333333,1466.1281,412.76173)"
       clip-path="url(#clipPath76)" />
    <path
       id="path77"
       d="m 0,0 c 21.839,-11.059 45.729,-21.846 70.369,-29.479 8.214,-2.544 16.511,-4.738 24.843,-6.475 66.082,7.839 78.249,-28.394 95.212,-82.675 -3.393,0 -10.312,-2.187 -13.703,-2.187 -23.748,33.926 -15.427,85.917 -70.741,69.962 -7.901,0.871 -15.935,2.274 -23.964,4.131 -32.121,7.429 -64.174,22.149 -91.335,35.901 C -13.458,-8.728 -3.464,1.743 0,0"
       style="fill:#000000;fill-opacity:1;fill-rule:nonzero;stroke:none"
       transform="matrix(1.3333333,0,0,-1.3333333,1302.0252,536.40173)"
       clip-path="url(#clipPath78)" />
    <path
       id="path79"
       d="m 0,0 c -23.892,7.492 -55.298,22.042 -54.357,51.841 0.016,0.519 0.08,1.041 0.111,1.561 -3.051,2.197 -6.026,4.533 -8.945,6.992 -1.457,-4.808 -2.347,-9.72 -2.501,-14.505 C -66.708,13.302 -30.828,-5.206 -3.633,-13.708 0.346,-14.948 3.985,-1.231 0,0"
       style="fill:#000000;fill-opacity:1;fill-rule:nonzero;stroke:none"
       transform="matrix(1.3333333,0,0,-1.3333333,1067.2531,435.40627)"
       clip-path="url(#clipPath80)" />
    <path
       id="path81"
       d="m 0,0 c -22.541,-36.147 -24.992,-84.095 12.299,-110.828 16.977,-12.184 39.105,-16.627 59.266,-19.948 11.115,-1.829 61.05,1.309 65.525,-3.752 7.412,-8.292 16.686,-15.083 25.748,-21.421 58.475,-40.822 133.188,-54.541 203.019,-57.796 7.205,-0.337 14.413,-0.525 21.612,-0.588 68.803,3.287 153.618,3.287 201.114,57.568 10.179,10.178 3.393,27.141 -3.392,37.319 -3.392,6.785 -10.178,10.177 -16.962,10.177 37.317,0 50.888,-44.104 23.747,-64.459 -61.067,-40.71 -128.918,-47.496 -195.985,-51.699 -10.684,-0.288 -21.468,-0.323 -32.246,-0.062 -64.671,1.562 -129.161,13.766 -185.293,43.698 -17.672,9.394 -34.874,20.296 -49.305,34.322 -8.59,8.347 -36.289,3.012 -47.818,3.737 -26.052,1.69 -51.968,7.388 -75.011,19.853 C -40.317,-98.584 -32.87,-40.011 -8.819,-1.469 -6.497,2.317 5.033,8.097 0,0"
       style="fill:#000000;fill-opacity:1;fill-rule:nonzero;stroke:none"
       transform="matrix(1.3333333,0,0,-1.3333333,917.76747,405.5788)"
       clip-path="url(#clipPath82)" />
    <path
       id="path83"
       d="m 0,0 c 10.851,-30.967 -6.112,-58.108 -26.468,-78.463 13.571,23.748 23.748,44.104 16.963,74.637 0,0 6.785,3.392 9.505,3.826"
       style="fill:#000000;fill-opacity:1;fill-rule:nonzero;stroke:none"
       transform="matrix(1.3333333,0,0,-1.3333333,1556.8976,541.6452)"
       clip-path="url(#clipPath84)" />
    <path
       id="path85"
       d="m 0,0 c -8.15,-0.872 -17.002,-0.459 -24.506,1.542 -7.526,1.99 -12.24,5.262 -13.278,9.194 -2.889,10.95 -2.095,11.239 11.42,16.171 l 11.585,4.447 c 1.435,0.597 2.87,0.951 4.258,1.103 C 3.867,33.996 16.652,14.483 20.946,7.097 16.195,3.555 8.754,0.939 0,0 M 29.147,7.518 C 28.307,9.215 7.912,48.717 -17.578,38.164 l -11.316,-4.345 c -13.727,-5 -20.628,-7.521 -16.012,-24.961 1.774,-6.704 8.179,-11.669 18.512,-14.437 17.292,-4.576 44.101,-2.09 54.893,8.857 l 1.862,1.88 z"
       style="fill:#000000;fill-opacity:1;fill-rule:nonzero;stroke:none"
       transform="matrix(1.3333333,0,0,-1.3333333,1192.4601,549.49867)"
       clip-path="url(#clipPath86)" />
    <path
       id="path87"
       d="m 0,0 c -12.847,0.395 -37.099,2.851 -56.141,13.522 3.152,4.38 9.281,11.322 18.299,12.286 0.305,0.033 0.565,0.041 0.863,0.073 C -25.927,26.535 -13.222,17.291 0,0 m -68.41,10.363 3.384,-2.188 C -35.624,-11.051 7.552,-9.086 9.322,-9.002 l 8.002,0.399 -4.492,6.607 c -17.308,25.459 -34.251,37.844 -50.42,36.824 -18.797,-1.189 -28.6,-20.094 -28.986,-20.861 z"
       style="fill:#000000;fill-opacity:1;fill-rule:nonzero;stroke:none"
       transform="matrix(1.3333333,0,0,-1.3333333,1187.912,706.96413)"
       clip-path="url(#clipPath88)" />
    <path
       id="path89"
       d="m 0,0 c -20.307,-0.204 -66.739,0.894 -92.885,12.499 4.847,6.476 15.82,18.303 32.322,20.066 0.12,0.013 0.234,0.026 0.356,0.042 C -41.867,34.4 -21.58,23.003 0,0 m -105.854,8.687 3.988,-2.166 C -67.852,-12.007 7.391,-8.907 10.586,-8.767 l 9.175,0.415 -5.952,6.979 C -12.494,29.464 -37.759,43.894 -61.198,41.522 -88.868,38.763 -103.043,13.69 -103.616,12.65 Z"
       style="fill:#000000;fill-opacity:1;fill-rule:nonzero;stroke:none"
       transform="matrix(1.3333333,0,0,-1.3333333,1375.3247,748.87893)"
       clip-path="url(#clipPath90)" />
    <path
       id="path91"
       d="M 0,0 C 21.977,-4.668 48.615,-11.703 65.39,-27.507 67.882,-29.855 62.943,-41.288 60.453,-38.941 44.308,-23.73 19.927,-9.663 -1.235,-5.167 -4.58,-4.457 -3.349,0.711 0,0"
       style="fill:#231f20;fill-opacity:1;fill-rule:nonzero;stroke:none"
       transform="matrix(1.3333333,0,0,-1.3333333,1156.7739,306.04747)"
       clip-path="url(#clipPath92)" />
    <path
       id="path93"
       d="m 0,0 c -34.608,-4.958 -87.012,10.658 -99.053,57.613 -8.031,1.359 -15.335,3.707 -22.141,6.798 2.428,-31.832 21.641,-65.442 87.016,-76.118 20.024,-3.264 42.601,0.844 56.752,-3.597 C 54.71,-25.423 65.925,-44.49 65.925,-44.49 65.925,-44.49 44.404,6.356 0,0"
       style="fill:#000000;fill-opacity:1;fill-rule:nonzero;stroke:none"
       transform="matrix(1.3333333,0,0,-1.3333333,1180.6632,464.24093)"
       clip-path="url(#clipPath94)" />
    <path
       id="path95"
       d="m 0,0 c 0,0 -32.164,44.878 -27.127,-17.374 3.65,-44.962 -80.511,-60.149 -38.215,-94.282 l 13.065,-1.813 c 0,0 -12.44,26.02 21.099,58.596 33.561,32.591 18.298,57.012 44.025,40.147 0,0 1.438,1.754 -12.847,14.726"
       style="fill:#000000;fill-opacity:1;fill-rule:nonzero;stroke:none"
       transform="matrix(1.3333333,0,0,-1.3333333,1272.5943,325.5508)"
       clip-path="url(#clipPath96)" />
    <path
       id="path97"
       d="m 0,0 c -19.209,4.872 -37.253,10.413 -52.543,14.539 -4.873,1.315 -8.553,2.78 -13.582,3.231 -4.957,0.445 -13.751,5.999 -33.355,5.994 -8.786,-0.003 1.775,-9.035 1.182,-18.246 -0.086,-1.333 0.233,-2.422 0.8,-3.289 -0.088,-0.394 -0.175,-0.788 -0.255,-1.184 -2.643,-7.129 -4.36,-14.442 -5.216,-22.131 -0.851,-7.664 11.156,-7.603 12,0 0.134,1.2 0.308,2.395 0.501,3.587 0.627,0.687 1.132,1.63 1.425,2.871 0.147,0.623 0.318,1.247 0.491,1.872 0.136,-0.018 0.263,-0.036 0.403,-0.055 -0.019,0.46 0.688,1.726 0.69,2.183 1.581,5.329 3.045,9.913 3.654,15.325 0.063,0.556 0.033,1.081 -0.073,1.572 0.221,0.403 0.426,0.816 0.616,1.239 4.899,0.649 14.198,-1.463 16.196,-1.654 7.855,-0.751 14.612,-3.146 22.44,-4.118 14,-1.736 31.125,-4.874 40.381,-6.331 C 3.402,-5.799 7.446,-1.889 0,0"
       style="fill:#000000;fill-opacity:1;fill-rule:nonzero;stroke:none"
       transform="matrix(1.3333333,0,0,-1.3333333,1166.8377,308.27347)"
       clip-path="url(#clipPath98)" />
  </g>
</svg>
